<?xml version="1.0" encoding="UTF-8" standalone="no"?>
<!DOCTYPE svg PUBLIC "-//W3C//DTD SVG 20010904//EN"
              "http://www.w3.org/TR/2001/REC-SVG-20010904/DTD/svg10.dtd">

<svg xmlns="http://www.w3.org/2000/svg"
     width="19.8146mm" height="28.8327mm"
     viewBox="0 0 156 227">
  <usr kp="5 4 6 12 6 6 5 5"
       keel="-15,-26.2,-1" />
  <path id="Unnamed"
        fill="none" stroke="black" stroke-width="1"
        d="M 20.00,207.75
           C 21.00,205.75 27.75,205.00 27.75,205.00
             23.00,205.5 27.75,205.00 27.75,205.00
             25.00,205.25 27.75,205.00 27.75,205.00
             27.75,205.00 30.75,205.00 30.75,205.00
             30.75,205.00 33.00,204.75 33.00,204.75
             33.00,204.75 37.25,204.50 37.25,204.50
             37.25,204.50 41.00,203.00 41.00,203.00
             41.00,203.00 46.25,202.75 47.00,202.75
             47.75,202.75 50.75,202.00 50.75,202.00
             50.75,202.00 57.50,201.00 57.50,201.00
             57.50,201.00 62.50,199.25 62.50,199.25
             62.50,199.25 67.25,198.25 67.25,198.25
             67.25,198.25 73.00,196.75 73.00,196.75
             73.00,196.75 77.50,195.25 77.50,195.25
             77.50,195.25 81.50,193.00 81.50,193.00
             81.50,193.00 84.75,191.75 84.75,191.75
             84.75,191.75 88.25,190.25 88.25,190.25
             88.25,190.25 91.25,188.25 91.50,188.00
             91.75,187.75 94.50,186.25 94.50,186.25
             94.50,186.25 97.75,184.00 97.75,184.00
             97.75,184.00 100.75,180.75 100.75,180.75
             100.75,180.75 103.25,178.00 103.25,178.00
             103.25,178.00 105.25,175.00 105.25,175.00
             105.25,175.00 107.75,171.75 107.75,171.75
             107.75,171.75 109.50,167.50 109.75,167.75
             110.00,168.00 112.25,165.25 112.25,165.25
             112.25,165.25 113.50,162.25 113.50,162.25
             113.50,162.25 115.25,158.50 115.25,158.50
             115.25,158.50 117.00,154.75 117.00,154.75
             117.00,154.75 118.50,150.00 118.50,150.00
             118.50,150.00 120.75,146.00 120.75,145.75
             120.75,145.50 123.00,140.75 123.00,140.75
             123.00,140.75 125.50,135.50 125.50,135.50
             125.50,135.50 126.25,131.00 126.25,131.00
             126.25,131.00 128.25,127.50 128.25,127.50
             128.25,127.50 129.75,123.00 129.75,123.00
             129.75,123.00 131.50,118.50 131.50,118.00
             131.50,117.50 132.50,113.50 132.50,113.50
             132.50,113.50 133.50,109.00 133.50,109.00
             133.50,109.00 133.75,106.00 133.75,106.00
             133.75,106.00 134.75,103.75 134.75,103.50
             134.75,103.25 135.25,102.00 135.25,100.25
             135.25,98.50 135.50,96.00 135.50,96.00
             135.50,96.00 136.00,91.75 136.25,91.75
             136.50,91.75 136.00,87.50 136.00,87.50
             136.00,87.50 136.25,83.00 136.25,83.00
             136.25,83.00 135.50,80.00 135.50,79.50
             135.50,79.00 134.75,75.00 134.75,75.00
             134.75,75.00 133.00,71.00 133.00,71.00
             133.00,71.00 131.00,66.00 131.00,66.00
             131.00,66.00 130.25,62.00 130.00,62.00
             129.75,62.00 128.75,57.75 128.50,57.75
             128.25,57.75 127.25,53.75 127.00,53.50
             126.75,53.25 125.50,48.50 125.50,48.50
             125.50,48.50 125.25,44.00 125.25,44.00
             125.25,44.00 124.00,39.75 124.00,39.50
             124.00,39.25 124.00,34.00 124.00,34.00
             124.00,34.00 124.25,30.00 124.25,30.00
             124.15,30.00 124.25,26.50 124.25,26.50
             124.25,26.50 124.25,23.00 124.25,23.00
             124.35,23.00 124.50,19.75 124.50,19.75" />
</svg>
