<?xml version="1.0" encoding="UTF-8" standalone="no"?>
<!DOCTYPE svg PUBLIC "-//W3C//DTD SVG 20010904//EN"
              "http://www.w3.org/TR/2001/REC-SVG-20010904/DTD/svg10.dtd">

<svg xmlns="http://www.w3.org/2000/svg"
     width="37.1795mm" height="75.8974mm"
     viewBox="0 0 290 592">
  <path id="Unnamed"
        fill="none" stroke="black" stroke-width="1"
        d="M 247.00,41.00
           C 247.00,41.00 243.25,41.00 243.25,41.00
             243.25,41.00 239.75,41.50 239.75,41.50
             239.75,41.50 236.75,42.75 236.75,42.75
             236.75,42.75 234.25,45.25 234.25,45.25
             234.25,45.25 232.50,48.50 232.50,48.50
             232.50,48.50 232.00,52.75 232.00,52.75
             232.00,52.75 231.75,56.00 231.75,56.00
             231.75,56.00 231.75,59.50 231.75,59.50
             231.75,59.50 233.00,63.25 233.00,63.25
             233.00,63.25 232.25,67.00 232.25,67.00
             232.25,67.00 232.25,70.75 232.25,70.75
             232.25,70.75 231.50,73.50 231.50,73.50
             231.50,73.50 230.50,78.75 230.00,79.25
             229.50,79.75 228.50,83.00 228.50,83.00
             228.50,83.00 227.25,86.75 227.25,86.75
             227.25,86.75 225.50,92.25 225.50,92.25
             225.50,92.25 223.50,97.50 223.25,97.75
             223.00,98.00 221.00,101.75 221.00,101.75
             221.00,101.75 218.75,106.75 218.75,106.75
             218.75,106.75 214.00,112.25 214.00,112.25
             214.00,112.25 210.75,115.50 209.75,116.50
             208.75,117.50 206.25,121.50 206.25,121.50
             206.25,121.50 201.50,125.00 201.50,125.00
             201.50,125.00 197.75,130.00 197.50,130.25
             197.25,130.50 191.50,135.50 191.50,135.50
             191.50,135.50 188.50,138.50 188.50,138.50
             188.50,138.50 185.75,140.00 185.75,140.25
             185.75,140.50 181.25,143.75 181.25,143.75
             181.25,143.75 177.25,146.50 177.25,146.50
             177.25,146.50 174.00,148.75 174.00,148.75
             174.00,148.75 169.50,151.50 169.50,151.50
             169.50,151.50 166.00,153.00 166.00,153.00
             166.00,153.00 162.50,155.50 162.50,155.50
             162.50,155.50 159.25,158.50 159.25,158.50
             159.25,158.50 155.00,160.75 154.75,160.75
             154.50,160.75 150.50,163.50 150.25,163.50
             150.00,163.50 145.75,166.00 145.75,166.00
             145.75,166.00 142.00,168.25 142.00,168.25
             142.00,168.25 137.25,171.00 137.25,171.00
             137.25,171.00 132.50,173.25 132.50,173.25
             132.50,173.25 128.75,175.75 128.75,175.75
             128.75,175.75 124.00,179.00 124.00,179.00
             124.00,179.00 118.75,182.50 118.75,182.50
             118.75,182.50 112.25,186.50 112.25,186.50
             112.25,186.50 106.25,191.00 106.25,191.00
             106.25,191.00 102.00,194.00 102.00,194.25
             102.00,194.50 95.25,199.50 95.25,199.50
             95.25,199.50 90.25,202.50 90.25,202.50
             90.25,202.50 85.00,207.75 85.00,207.75
             85.00,207.75 79.25,213.25 79.25,213.25
             79.25,213.25 74.25,217.25 74.25,217.25
             74.25,217.25 69.75,221.25 69.75,221.50
             69.75,221.75 65.75,226.25 65.75,226.25
             65.75,226.25 60.25,230.50 60.25,230.50
             60.25,230.50 56.00,235.00 56.00,235.00
             56.00,235.00 51.25,238.50 51.25,238.50
             51.25,238.50 48.00,243.00 48.00,243.00
             48.00,243.00 43.00,248.50 43.00,248.50
             43.00,248.50 36.50,258.75 36.50,258.75
             36.50,258.75 34.50,264.25 34.50,264.75
             34.50,265.25 31.00,271.50 31.00,271.50
             31.00,271.50 29.25,275.75 29.25,275.75
             29.25,275.75 26.50,282.25 26.50,282.25
             26.50,282.25 24.75,289.25 24.75,289.25
             24.75,289.25 23.50,296.00 23.50,296.00
             23.50,296.00 22.00,302.75 22.00,302.75
             22.00,302.75 20.75,310.00 20.75,310.00
             20.75,310.00 20.50,315.25 20.50,315.25
             20.50,315.25 20.50,321.25 20.50,321.25
             20.50,321.25 20.75,326.75 20.75,326.75
             20.75,326.75 21.00,333.50 21.00,333.50
             21.00,333.50 21.25,338.50 21.25,338.50
             21.25,338.50 22.00,343.50 22.00,343.50
             22.00,343.50 21.75,349.25 22.00,349.50
             22.25,349.75 24.25,355.50 24.25,355.50
             24.25,355.50 26.00,362.25 26.00,362.25
             26.00,362.25 27.75,368.25 27.75,368.25
             27.75,368.25 29.25,374.50 29.25,374.50
             29.25,374.50 31.50,379.50 31.50,379.50
             31.50,379.50 32.75,385.25 32.75,385.25
             32.75,385.25 34.00,390.00 34.00,390.00
             34.00,390.00 35.50,394.75 35.50,394.75
             35.50,394.75 36.75,401.00 36.75,401.00
             36.75,401.00 37.25,406.50 37.25,406.50
             37.25,406.50 38.50,412.50 38.50,412.50
             38.50,412.50 38.50,419.25 38.50,419.25
             38.50,419.25 40.00,425.00 40.00,425.00
             40.00,425.00 43.00,430.50 43.00,430.50
             43.00,430.50 44.00,435.75 44.25,436.00
             44.50,436.25 46.25,442.25 46.25,442.25
             46.25,442.25 48.25,448.75 48.25,448.75
             48.25,448.75 50.00,455.50 50.00,455.50
             50.00,455.50 51.75,463.75 51.75,463.75
             51.75,463.75 53.25,471.25 53.25,471.25
             53.25,471.25 54.25,478.50 54.25,478.50
             54.25,478.50 55.75,487.00 55.75,487.00
             55.75,487.00 57.00,492.75 57.00,492.75
             57.00,492.75 58.50,500.00 58.50,500.00
             58.50,500.00 59.25,507.25 59.25,507.25
             59.25,507.25 60.75,513.00 60.75,513.00
             60.75,513.00 61.75,518.75 61.75,518.75
             61.75,518.75 63.00,523.75 62.75,525.00
             62.50,526.25 63.00,532.00 63.00,532.00
             63.00,532.00 64.00,538.00 64.00,538.00
             64.00,538.00 64.00,544.00 64.00,544.00
             64.00,544.00 64.25,550.00 64.25,550.00
             64.25,550.00 65.00,555.50 65.00,555.50
             65.00,555.50 64.75,560.50 64.75,560.50" />
</svg>
