<?xml version="1.0" encoding="UTF-8" standalone="no"?>
<!DOCTYPE svg PUBLIC "-//W3C//DTD SVG 20010904//EN"
              "http://www.w3.org/TR/2001/REC-SVG-20010904/DTD/svg10.dtd">

<svg xmlns="http://www.w3.org/2000/svg"
     width="32.6695mm" height="33.8983mm"
     viewBox="0 0 771 800">
  <cmnt kp ="5 4 6 12 12 8 5 4" />
  <usr kp ="5 4 6 12 12 8 5 4"
       cX = "4.88"
       cZ = "4.88" />
  <path id="Unnamed"
        fill="none" stroke="black" stroke-width="1"
        d="M 27.00,671.50
           C 27.00,671.50 25.50,663.00 25.50,663.00
             25.50,663.00 25.50,655.00 25.50,655.00
             25.50,655.00 24.00,648.00 24.00,648.00
             24.00,648.00 23.00,639.50 23.00,639.50
             23.00,639.50 22.00,632.00 22.00,632.00
             22.00,632.00 22.00,624.50 22.00,624.50
             22.00,624.50 20.00,615.00 20.50,615.50
             21.00,616.00 21.00,607.50 21.00,607.50
             21.00,607.50 20.50,599.50 20.50,599.50
             20.50,599.50 21.50,590.00 21.50,590.00
             21.50,590.00 20.50,581.00 20.50,581.00
             20.50,581.00 21.00,573.50 21.00,573.50
             21.00,573.50 22.00,564.50 22.00,564.50
             22.00,564.50 23.50,556.00 23.50,556.00
             23.50,556.00 24.00,548.50 24.00,548.50
             24.00,548.50 26.00,541.50 26.00,541.50
             26.00,541.50 26.00,536.00 27.00,534.50
             28.00,533.00 28.50,525.00 28.50,525.00
             28.50,525.00 31.50,515.50 31.50,515.50
             31.50,515.50 34.00,505.50 34.50,505.50
             35.00,505.50 38.00,496.50 38.00,496.50
             38.00,496.50 42.00,488.50 42.00,488.50
             42.00,488.50 45.50,480.50 45.50,480.50
             45.50,480.50 50.00,471.50 50.00,471.50
             50.00,471.50 57.00,463.00 57.00,463.00
             57.00,463.00 61.50,455.50 62.00,455.50
             62.50,455.50 66.50,447.00 66.50,447.00
             66.50,447.00 72.00,439.50 72.00,439.50
             72.00,439.50 77.50,434.50 77.50,434.50
             77.50,434.50 83.50,428.50 83.50,428.50
             83.50,428.50 89.50,423.00 89.50,423.00
             89.50,423.00 94.00,417.50 94.00,417.50
             94.00,417.50 101.00,411.50 101.00,411.50
             101.00,411.50 108.50,404.00 108.50,404.00
             108.50,404.00 114.50,398.00 114.50,398.00
             114.50,398.00 124.50,392.50 124.50,392.50
             124.50,392.50 132.00,385.50 132.00,385.50
             132.00,385.50 139.00,378.50 139.00,378.50
             139.00,378.50 149.50,372.50 149.50,372.50
             149.50,372.50 159.00,367.00 159.00,367.00
             159.00,367.00 169.00,360.00 169.00,360.00
             169.00,360.00 180.00,353.00 180.00,353.00
             180.00,353.00 189.50,346.00 189.50,346.00
             189.50,346.00 201.00,339.50 201.00,339.50
             201.00,339.50 209.50,334.50 209.50,334.50
             209.50,334.50 218.50,328.50 218.50,328.50
             218.50,328.50 230.50,323.00 230.00,323.00
             229.50,323.00 239.00,316.00 239.00,316.00
             239.00,316.00 248.50,309.50 248.50,309.50
             248.50,309.50 257.50,303.00 257.50,303.00
             257.50,303.00 266.50,297.00 266.50,297.00
             266.50,297.00 275.00,291.50 275.00,291.50
             275.00,291.50 284.00,285.00 284.00,285.00
             284.00,285.00 292.00,278.50 292.00,278.50
             292.00,278.50 301.00,270.50 300.00,270.00
             299.00,269.50 309.00,259.50 309.00,259.50
             309.00,259.50 318.00,249.00 318.00,249.00
             318.00,249.00 324.00,239.50 324.00,239.50
             324.00,239.50 328.00,231.50 328.00,231.50
             328.00,231.50 333.00,220.00 333.00,220.00
             333.00,220.00 336.50,209.50 336.50,209.50
             336.50,209.50 338.00,199.00 338.00,199.00
             338.00,199.00 340.50,188.50 340.50,188.00
             340.50,187.50 343.50,175.00 343.50,175.00
             343.50,175.00 343.50,164.50 343.50,164.50
             343.50,164.50 346.00,154.00 346.00,154.00
             346.00,154.00 347.00,145.00 347.00,144.50
             347.00,144.00 349.00,133.50 349.50,132.50
             350.00,131.50 353.50,124.50 353.50,124.50
             353.50,124.50 357.00,119.50 357.00,119.50
             357.00,119.50 361.50,114.50 361.50,114.50
             361.50,114.50 366.50,109.50 366.50,109.50
             366.50,109.50 373.00,106.00 373.00,106.00
             373.00,106.00 380.50,104.00 380.50,104.00
             380.50,104.00 387.50,103.50 387.50,103.50
             387.50,103.50 391.00,104.00 391.00,104.00" />
</svg>
