<?xml version="1.0" encoding="UTF-8" standalone="no"?>
<!DOCTYPE svg PUBLIC "-//W3C//DTD SVG 20010904//EN"
              "http://www.w3.org/TR/2001/REC-SVG-20010904/DTD/svg10.dtd">

<svg xmlns="http://www.w3.org/2000/svg"
     width="32.6695mm" height="33.8983mm"
     viewBox="0 0 771 800">
  <cmnt kp ="5 4 6 12 12 8 5 4" />
  <usr kp ="8 9 7 6 6"
       cX = "8.14"
       cZ = "8.14" />
  <path id="Unnamed"
        fill="none" stroke="black" stroke-width="1"
        d="M -231.9,-49.7 
           C -232,-49  25.50,663.00 25.50,663.00
             -233,-40  25.50,655.00 25.50,655.00
             -234,-30  24.00,648.00 24.00,648.00
             -233,-22  23.00,639.50 23.00,639.50
             -233.1,-15  22.00,632.00 22.00,632.00
             -231,-6   22.00,624.50 22.00,624.50
             -228,3    20.00,615.00 20.50,615.50
             -225,7    21.00,607.50 21.00,607.50
             -220,14   20.50,599.50 20.50,599.50
             -215,21   21.50,590.00 21.50,590.00
             -209,27   20.50,581.00 20.50,581.00
             -201,32   21.00,573.50 21.00,573.50
             -197,39   22.00,564.50 22.00,564.50
             -189,42   23.50,556.00 23.50,556.00
             -179,48   24.00,548.50 24.00,548.50
             -169,55   26.00,541.50 26.00,541.50
             -158,60   26.00,536.00 27.00,534.50
             -157,60.5 28.50,525.00 28.50,525.00
             -156,61   31.50,515.50 31.50,515.50
             -155,61.5 34.00,505.50 34.50,505.50
             -154,62   38.00,496.50 38.00,496.50
             -153,62.5 42.00,488.50 42.00,488.50
             -152,63   45.50,480.50 45.50,480.50
             -151,63.5 50.00,471.50 50.00,471.50
             -145,64   57.00,463.00 57.00,463.00
             -134,69   61.50,455.50 62.00,455.50
             -124,75   66.50,447.00 66.50,447.00
             -111,79   72.00,439.50 72.00,439.50
             -100,83   77.50,434.50 77.50,434.50
             -82,91    83.50,428.50 83.50,428.50
             -72,96    89.50,423.00 89.50,423.00
             -62,100   94.00,417.50 94.00,417.50
             -53,106   101.00,411.50 101.00,411.50
             -43,115   108.50,404.00 108.50,404.00
             -35,123   114.50,398.00 114.50,398.00
             -30,133   124.50,392.50 124.50,392.50
             -27,144   132.00,385.50 132.00,385.50
             -26,152   139.00,378.50 139.00,378.50
             -22,160   149.50,372.50 149.50,372.50
             -19,166   159.00,367.00 159.00,367.00
             -15,170   169.00,360.00 169.00,360.00
             -9,172    180.00,353.00 180.00,353.00
             -4,172.7  189.50,346.00 189.50,346.00
             -3,172.9  201.00,339.50 201.00,339.50
             -2,172.95 209.50,334.50 209.50,334.50
             -0.01,173 218.50,328.50 218.50,328.50" />
</svg>
